<?xml version="1.0" encoding="utf-8"?>
<!-- Uploaded to: SVG Repo, www.svgrepo.com, Generator: SVG Repo Mixer Tools -->
<svg width="800px" height="800px" viewBox="0 0 1024 1024" class="icon"  version="1.1" xmlns="http://www.w3.org/2000/svg"><path d="M687.86 719.71c0 147.56-52.67 244.17-107.85 239.54-90.51-7.59-59.07-105.14-69.91-264.47-10-147.22-14.09-266.64 52-268.81 83.51-2.73 125.76 146.18 125.76 293.74z" fill="#8EC2B1" /><path d="M674.85 733.8c22.76-5.42 40.1-20.59 52-50.94s24.93-96.47 34.68-118.14S832 500.76 863.45 556s1.08 119.23-56.36 165.84-147.41 63.95-147.41 63.95zM603.18 485.68s31.14-42.49 30.48-119.34-47.31-117.91-40.39-143.07 58.43-56.06 104.54 15.14-3.29 156.66-17.3 183.68-58.34 80.22-58.34 80.22zM525.27 616.74c-69.37 1.08-140.91-90-148.49-149.58s10.84-176.68-34.68-240.63-122.48-91-156.08 15.17 58.52 252.56 86.71 288.3 172.34 146.35 251.46 148.52 1.08-61.78 1.08-61.78z" fill="#8EC2B1" /><path d="M202.19 132.72s-5.85-53.34 1.81-66.25 38.25 44.69 38.3 49.12S259.36 66.7 265 68s8.73 64.13 8.73 64.13 33.91-46.81 38.39-42.44 1 56.75-20.49 82.81-57.68 49.09-90.23 33-44.7-85.05-38.78-100.39 39.57 27.61 39.57 27.61z" fill="#E37171" /><path d="M579.85 249.88c-2.59 5.76 42.4 33.83 47.95 20.91 10.02-23.34-44.43-28.72-47.95-20.91zM617.08 176.66c-5.2 3.6 18.85 50.86 30.27 42.66 20.65-14.81-23.23-47.53-30.27-42.66zM694 226.74c-6.3-0.45-17.17 51.45-3.13 52.21 25.36 1.38 11.68-51.59 3.13-52.21zM737 304.81c-3.41-5.32-51.51 17-43.72 28.71 14.02 21.15 48.3-21.52 43.72-28.71zM707.7 391.52c-3.41-5.32-51.51 17-43.72 28.71 14.02 21.16 48.33-21.49 43.72-28.71zM619.33 326.84c-4.33 4.61 29.09 45.78 38.54 35.37 17.06-18.81-32.67-41.62-38.54-35.37zM143 295.4c-2.59 5.76 42.4 33.83 47.95 20.91C201 293 146.56 287.59 143 295.4zM180.27 222.19c-5.2 3.6 18.85 50.86 30.27 42.66 20.63-14.85-23.23-47.54-30.27-42.66zM324.39 191c-6.3-0.45-17.17 51.45-3.13 52.21 25.37 1.35 11.68-51.62 3.13-52.21zM367.35 269c-3.41-5.32-51.51 17-43.72 28.71C337.69 318.9 372 276.26 367.35 269zM403.63 516.35c-6.24-1-21.44 49.83-7.52 51.77 25.17 3.5 15.99-50.44 7.52-51.77zM182.52 372.36c-4.33 4.61 29.09 45.78 38.54 35.37 17.06-18.81-32.67-41.61-38.54-35.37zM504.85 459.57c-5.44 3.22 15.24 52.06 27.2 44.68 21.62-13.33-19.83-49.05-27.2-44.68zM570.26 409c-6.29 0.6-8.43 53.58 5.54 52 25.2-2.82 2.99-52.81-5.54-52zM611.75 472.87c-6.28-0.73-19.45 50.64-5.46 52 25.28 2.53 13.98-51 5.46-52zM784.09 513c-6.28-0.73-19.45 50.64-5.46 52 25.28 2.5 13.98-51 5.46-52zM874 555.83c-5.58-3-36.51 40.12-24 46.49 22.64 11.51 31.54-42.47 24-46.49zM881 666.57c-0.93-6.25-54-5.59-51.65 8.28 4.21 25.05 52.95 0.15 51.65-8.28zM790.21 749.28c0.91-6.25-50.06-20.89-51.85-6.95-3.23 25.19 50.64 15.43 51.85 6.95zM791.37 667.43c-4.29-4.64-47.7 25.82-38 36 17.63 18.31 43.82-29.71 38-36zM741.46 602.3c-6.22 1.11-4 54.1 9.83 51.38 24.92-4.93-1.4-52.9-9.83-51.38zM547.89 525.36c-6 2 4.08 54.09 17.32 49.36 23.93-8.56-9.21-52.1-17.32-49.36zM555.74 633c-5.43 3.23 15.35 52 27.3 44.62 21.59-13.36-19.94-48.98-27.3-44.62zM551.16 747.55c-6 2 4 54.09 17.29 49.37 23.93-8.53-9.17-52.11-17.29-49.37zM610.12 884.43c-5-3.85-42.65 33.51-31.35 41.88 20.42 15.11 38.15-36.66 31.35-41.88zM681.37 840.33c-4.42-4.52-47 27.1-37 37 18.07 17.85 42.99-30.87 37-37zM631.45 782.5c-5.55-3-36.95 39.71-24.49 46.22 22.52 11.77 32.04-42.12 24.49-46.22zM652.41 682.43c-4.59-4.34-45.88 28.94-35.5 38.42 18.75 17.15 41.72-32.53 35.5-38.42zM697 596.54c-5.17-3.63-41.18 35.3-29.54 43.17 21.01 14.22 36.54-38.25 29.54-43.17zM490.83 561.83c-5.11 3.72 20 50.4 31.26 41.94 20.28-15.3-24.33-46.98-31.26-41.94zM268.56 373.95c-5.44 3.22 15.24 52.06 27.2 44.68 21.62-13.34-19.83-49.05-27.2-44.68zM266.77 269.18c-6.29 0.6-8.43 53.58 5.54 52 25.25-2.82 2.99-52.81-5.54-52zM358.29 407.55c-6.07-1.77-27.65 46.66-14.09 50.37 24.5 6.71 22.31-47.92 14.09-50.37zM239.11 495.14c-1.53 6.13 47.74 25.75 50.9 12 5.71-24.71-48.83-20.31-50.9-12zM385.15 623.41c-1.19 6.21 49.08 23.1 51.48 9.25 4.37-25.02-49.86-17.66-51.48-9.25zM313.37 535.29c-4.25 4.68 29.85 45.29 39.12 34.72 16.75-19.09-33.36-41.06-39.12-34.72zM504.9 695.69c-5.71 2.7 10.29 53.26 22.9 47 22.78-11.22-15.15-50.69-22.9-47zM525.21 808.91c-6.3 0.49-9.36 53.43 4.64 52.1 25.29-2.4 3.9-52.76-4.64-52.1zM669.73 529.59c-5.64-2.86-35.73 40.81-23.08 46.94 22.86 11.08 30.73-43.07 23.08-46.94z" fill="#6CB099" /></svg>